<svg xmlns="http://www.w3.org/2000/svg" xmlns:xlink="http://www.w3.org/1999/xlink" width="500" zoomAndPan="magnify" viewBox="0 0 375 374.999991" height="500" preserveAspectRatio="xMidYMid meet" version="1.0"><defs><filter x="0%" y="0%" width="100%" height="100%" id="ebea19a35e"><feColorMatrix values="0 0 0 0 1 0 0 0 0 1 0 0 0 0 1 0 0 0 1 0" color-interpolation-filters="sRGB"/></filter><mask id="c2e74323ea"><g filter="url(#ebea19a35e)"><rect x="-37.5" width="450" fill="#000000" y="-37.499999" height="449.999989" fill-opacity="0.7882"/></g></mask><clipPath id="8162de1302"><path d="M 0.238281 0.480469 L 283.441406 0.480469 L 283.441406 310.320312 L 0.238281 310.320312 Z M 0.238281 0.480469 " clip-rule="nonzero"/></clipPath><clipPath id="d6160aae04"><rect x="0" width="284" y="0" height="311"/></clipPath><mask id="7f17a59c8d"><g filter="url(#ebea19a35e)"><rect x="-37.5" width="450" fill="#000000" y="-37.499999" height="449.999989" fill-opacity="0.7882"/></g></mask><clipPath id="aad449dcfd"><path d="M 0.0390625 1 L 126 1 L 126 122.28125 L 0.0390625 122.28125 Z M 0.0390625 1 " clip-rule="nonzero"/></clipPath><clipPath id="8f78110523"><rect x="0" width="127" y="0" height="123"/></clipPath><mask id="8dce306ff8"><g filter="url(#ebea19a35e)"><rect x="-37.5" width="450" fill="#000000" y="-37.499999" height="449.999989" fill-opacity="0.7882"/></g></mask><clipPath id="b483a1b17b"><path d="M 1 0.480469 L 259.441406 0.480469 L 259.441406 196.558594 L 1 196.558594 Z M 1 0.480469 " clip-rule="nonzero"/></clipPath><clipPath id="f6c1e69bd5"><rect x="0" width="260" y="0" height="197"/></clipPath><mask id="8709647217"><g filter="url(#ebea19a35e)"><rect x="-37.5" width="450" fill="#000000" y="-37.499999" height="449.999989" fill-opacity="0.7882"/></g></mask><clipPath id="1f75a8ebef"><path d="M 0.0390625 1 L 108 1 L 108 80.519531 L 0.0390625 80.519531 Z M 0.0390625 1 " clip-rule="nonzero"/></clipPath><clipPath id="4ad6b74dd1"><rect x="0" width="109" y="0" height="81"/></clipPath><mask id="fc8e11cf39"><g filter="url(#ebea19a35e)"><rect x="-37.5" width="450" fill="#000000" y="-37.499999" height="449.999989" fill-opacity="0.7882"/></g></mask><clipPath id="19a0604543"><path d="M 0.0390625 1 L 126 1 L 126 122.28125 L 0.0390625 122.28125 Z M 0.0390625 1 " clip-rule="nonzero"/></clipPath><clipPath id="c0d3670ee7"><rect x="0" width="127" y="0" height="123"/></clipPath><mask id="2836253c1d"><g filter="url(#ebea19a35e)"><rect x="-37.5" width="450" fill="#000000" y="-37.499999" height="449.999989" fill-opacity="0.7882"/></g></mask><clipPath id="db5c861114"><path d="M 1 0.0390625 L 145.878906 0.0390625 L 145.878906 216 L 1 216 Z M 1 0.0390625 " clip-rule="nonzero"/></clipPath><clipPath id="72ca7cbc73"><rect x="0" width="146" y="0" height="217"/></clipPath><mask id="2bb9be59f7"><g filter="url(#ebea19a35e)"><rect x="-37.5" width="450" fill="#000000" y="-37.499999" height="449.999989" fill-opacity="0.7882"/></g></mask><clipPath id="5a5482b50a"><path d="M 0.0390625 0.320312 L 155.320312 0.320312 L 155.320312 118.640625 L 0.0390625 118.640625 Z M 0.0390625 0.320312 " clip-rule="nonzero"/></clipPath><clipPath id="25c24f8980"><rect x="0" width="156" y="0" height="119"/></clipPath><mask id="2cbef9f271"><g filter="url(#ebea19a35e)"><rect x="-37.5" width="450" fill="#000000" y="-37.499999" height="449.999989" fill-opacity="0.2392"/></g></mask><clipPath id="c015badf5f"><path d="M 0.601562 1 L 52 1 L 52 91.320312 L 0.601562 91.320312 Z M 0.601562 1 " clip-rule="nonzero"/></clipPath><clipPath id="43d09d7719"><rect x="0" width="53" y="0" height="92"/></clipPath><mask id="d541b81d93"><g filter="url(#ebea19a35e)"><rect x="-37.5" width="450" fill="#000000" y="-37.499999" height="449.999989" fill-opacity="0.2392"/></g></mask><clipPath id="52ee72fb36"><path d="M 0.121094 0.078125 L 136.921875 0.078125 L 136.921875 122.71875 L 0.121094 122.71875 Z M 0.121094 0.078125 " clip-rule="nonzero"/></clipPath><clipPath id="683dbb4944"><rect x="0" width="137" y="0" height="123"/></clipPath><mask id="b3d45ba40c"><g filter="url(#ebea19a35e)"><rect x="-37.5" width="450" fill="#000000" y="-37.499999" height="449.999989" fill-opacity="0.2392"/></g></mask><clipPath id="b94e8f1208"><path d="M 0.0390625 1 L 126 1 L 126 73.320312 L 0.0390625 73.320312 Z M 0.0390625 1 " clip-rule="nonzero"/></clipPath><clipPath id="79eb9e7c63"><rect x="0" width="127" y="0" height="74"/></clipPath><mask id="2d1e7e2247"><g filter="url(#ebea19a35e)"><rect x="-37.5" width="450" fill="#000000" y="-37.499999" height="449.999989" fill-opacity="0.2392"/></g></mask><clipPath id="b8900161de"><path d="M 0.679688 0.558594 L 87.320312 0.558594 L 87.320312 107.359375 L 0.679688 107.359375 Z M 0.679688 0.558594 " clip-rule="nonzero"/></clipPath><clipPath id="640159bda3"><rect x="0" width="88" y="0" height="108"/></clipPath></defs><g mask="url(#c2e74323ea)"><g transform="matrix(1, 0, 0, 1, 6, 6)"><g clip-path="url(#d6160aae04)"><g clip-path="url(#8162de1302)"><path fill="#1e1e1e" d="M 69.675781 180.671875 C 69.675781 118.496094 120.078125 68.097656 182.25 68.097656 C 226.109375 68.097656 264.109375 93.179688 282.691406 129.777344 C 282.964844 125.570312 283.113281 121.332031 283.113281 117.058594 C 283.113281 100.140625 280.9375 83.738281 276.855469 68.101562 L 228.996094 20.234375 C 202.765625 -5.996094 160.234375 -5.996094 134 20.234375 L 20.234375 134.003906 C -5.996094 160.234375 -5.996094 202.765625 20.234375 229 L 101.328125 310.085938 C 126 308.628906 149.429688 302.527344 170.761719 292.667969 C 113.984375 286.914062 69.675781 238.96875 69.675781 180.671875 Z M 69.675781 180.671875 " fill-opacity="1" fill-rule="nonzero"/></g></g></g></g><g mask="url(#7f17a59c8d)"><g transform="matrix(1, 0, 0, 1, 125, 123)"><g clip-path="url(#8f78110523)"><g clip-path="url(#aad449dcfd)"><path fill="#1e1e1e" d="M 38.78125 101.207031 L 88.773438 101.207031 C 88.773438 107.578125 89.734375 113.722656 91.503906 119.511719 C 111.867188 109.191406 125.835938 88.066406 125.835938 63.671875 C 125.835938 29.105469 97.816406 1.089844 63.25 1.089844 C 28.683594 1.089844 0.667969 29.105469 0.667969 63.671875 C 0.667969 90.296875 17.300781 113.023438 40.734375 122.066406 C 39.464844 115.304688 38.78125 108.335938 38.78125 101.207031 Z M 38.78125 101.207031 " fill-opacity="1" fill-rule="nonzero"/></g></g></g></g><g mask="url(#8dce306ff8)"><g transform="matrix(1, 0, 0, 1, 108, 6)"><g clip-path="url(#f6c1e69bd5)"><g clip-path="url(#b483a1b17b)"><path fill="#1e1e1e" d="M 80.25 68.097656 C 142.425781 68.097656 192.828125 118.496094 192.828125 180.671875 C 192.828125 186.003906 192.445312 191.242188 191.734375 196.375 C 216.546875 192.019531 239.429688 182.050781 259.019531 167.824219 C 256.457031 155.429688 250.378906 143.621094 240.761719 134.003906 L 126.996094 20.234375 C 100.765625 -5.996094 58.234375 -5.996094 32 20.234375 L 1.113281 51.121094 C 2.445312 65.480469 5.644531 79.300781 10.464844 92.335938 C 29.652344 77.160156 53.894531 68.097656 80.25 68.097656 Z M 80.25 68.097656 " fill-opacity="1" fill-rule="nonzero"/></g></g></g></g><g mask="url(#8709647217)"><g transform="matrix(1, 0, 0, 1, 143, 123)"><g clip-path="url(#4ad6b74dd1)"><g clip-path="url(#1f75a8ebef)"><path fill="#1e1e1e" d="M 45.25 1.089844 C 27.71875 1.089844 11.878906 8.308594 0.519531 19.925781 C 25.910156 52.015625 63.132812 74.320312 105.601562 80.257812 C 107.050781 74.976562 107.839844 69.417969 107.839844 63.671875 C 107.835938 29.105469 79.816406 1.089844 45.25 1.089844 Z M 45.25 1.089844 " fill-opacity="1" fill-rule="nonzero"/></g></g></g></g><g mask="url(#fc8e11cf39)"><g transform="matrix(1, 0, 0, 1, 125, 123)"><g clip-path="url(#c0d3670ee7)"><g clip-path="url(#19a0604543)"><path fill="#1e1e1e" d="M 38.78125 101.207031 L 88.773438 101.207031 C 88.773438 107.578125 89.734375 113.722656 91.503906 119.511719 C 111.867188 109.191406 125.835938 88.066406 125.835938 63.671875 C 125.835938 29.105469 97.816406 1.089844 63.25 1.089844 C 28.683594 1.089844 0.667969 29.105469 0.667969 63.671875 C 0.667969 90.296875 17.300781 113.023438 40.734375 122.066406 C 39.464844 115.304688 38.78125 108.335938 38.78125 101.207031 Z M 38.78125 101.207031 " fill-opacity="1" fill-rule="nonzero"/></g></g></g></g><g mask="url(#2836253c1d)"><g transform="matrix(1, 0, 0, 1, 223, 71)"><g clip-path="url(#72ca7cbc73)"><g clip-path="url(#db5c861114)"><path fill="#1e1e1e" d="M 125.765625 69.003906 L 57.332031 0.570312 C 57.152344 0.570312 56.976562 0.566406 56.792969 0.566406 C 37.503906 0.566406 18.90625 3.539062 1.429688 9.035156 C 45.859375 24.105469 77.828125 66.15625 77.828125 115.671875 C 77.828125 155.101562 57.550781 189.796875 26.855469 209.902344 C 34.90625 213.671875 43.878906 215.789062 53.355469 215.789062 C 62.824219 215.789062 71.796875 213.679688 79.84375 209.917969 L 125.761719 164 C 151.996094 137.765625 151.996094 95.234375 125.765625 69.003906 Z M 125.765625 69.003906 " fill-opacity="1" fill-rule="nonzero"/></g></g></g></g><g mask="url(#2bb9be59f7)"><g transform="matrix(1, 0, 0, 1, 95, 250)"><g clip-path="url(#25c24f8980)"><g clip-path="url(#5a5482b50a)"><path fill="#1e1e1e" d="M 155.074219 83.6875 C 132.410156 78.265625 112.429688 65.976562 97.402344 49.164062 C 96.023438 49.210938 94.644531 49.25 93.25 49.25 C 54.863281 49.25 20.964844 30.027344 0.648438 0.691406 C 0.601562 2.386719 0.574219 4.078125 0.574219 5.78125 C 0.574219 25.980469 3.839844 45.414062 9.84375 63.605469 L 45 98.761719 C 71.230469 124.992188 113.761719 124.992188 139.996094 98.761719 Z M 155.074219 83.6875 " fill-opacity="1" fill-rule="nonzero"/></g></g></g></g><g mask="url(#2cbef9f271)"><g transform="matrix(1, 0, 0, 1, 249, 195)"><g clip-path="url(#43d09d7719)"><g clip-path="url(#c015badf5f)"><path fill="#1e1e1e" d="M 18.1875 91.113281 C 38.949219 70.691406 51.832031 42.277344 51.832031 10.855469 C 51.832031 7.621094 51.691406 4.425781 51.421875 1.265625 C 48.433594 36.691406 29.039062 67.441406 0.867188 85.90625 C 6.261719 88.433594 12.078125 90.214844 18.1875 91.113281 Z M 18.1875 91.113281 " fill-opacity="1" fill-rule="nonzero"/></g></g></g></g><g mask="url(#d541b81d93)"><g transform="matrix(1, 0, 0, 1, 75, 196)"><g clip-path="url(#683dbb4944)"><g clip-path="url(#52ee72fb36)"><path fill="#1e1e1e" d="M 117.402344 103.167969 C 116.023438 103.21875 114.644531 103.253906 113.25 103.253906 C 54.332031 103.253906 5.996094 57.992188 1.089844 0.34375 C 0.828125 3.484375 0.671875 6.65625 0.671875 9.859375 C 0.671875 72.035156 51.070312 122.4375 113.246094 122.4375 C 121.144531 122.4375 128.851562 121.617188 136.296875 120.074219 C 129.375 115.15625 123.042969 109.476562 117.402344 103.167969 Z M 117.402344 103.167969 " fill-opacity="1" fill-rule="nonzero"/></g></g></g></g><g mask="url(#b3d45ba40c)"><g transform="matrix(1, 0, 0, 1, 125, 123)"><g clip-path="url(#79eb9e7c63)"><g clip-path="url(#b94e8f1208)"><path fill="#1e1e1e" d="M 63.25 1.089844 C 28.683594 1.089844 0.667969 29.105469 0.667969 63.671875 C 0.667969 66.933594 0.917969 70.136719 1.398438 73.265625 C 6.015625 43.253906 31.949219 20.269531 63.25 20.269531 C 94.554688 20.269531 120.492188 43.253906 125.101562 73.265625 C 125.582031 70.136719 125.835938 66.933594 125.835938 63.671875 C 125.835938 29.105469 97.816406 1.089844 63.25 1.089844 Z M 63.25 1.089844 " fill-opacity="1" fill-rule="nonzero"/></g></g></g></g><g mask="url(#2d1e7e2247)"><g transform="matrix(1, 0, 0, 1, 163, 238)"><g clip-path="url(#640159bda3)"><g clip-path="url(#b8900161de)"><path fill="#1e1e1e" d="M 87.074219 95.6875 C 42.214844 84.953125 7.785156 47.371094 1.730469 0.871094 L 0.785156 0.871094 C 0.785156 49.855469 32.074219 91.527344 75.757812 107.003906 Z M 87.074219 95.6875 " fill-opacity="1" fill-rule="nonzero"/></g></g></g></g></svg>